<?xml version="1.0" encoding="utf-8"?>
<svg width="262" height="262" viewBox="0 0 262 262" fill="none" xmlns="http://www.w3.org/2000/svg">
  <g id="Group" transform="translate(3 3)">
    <path id="Rectangle" d="M240 0C248.838 0 256 7.16224 256 16L256 240C256 248.838 248.838 256 240 256L16 256C7.16224 256 0 248.838 0 240L0 16C0 7.16224 7.16224 0 16 0L240 0Z" fill="none" stroke-width="6" stroke="#FE7C20" />
    <g id="Group" transform="translate(21 28)">
      <path id="Triangle" d="M182.68 6.27602C171.649 20.64 105.424 106.876 105.424 106.876C105.424 106.876 140.584 55.8954 131.317 28.8809C122.051 1.86658 0 0 0 0L179.587 0Q179.723 0 179.858 0.00943046Q179.993 0.0188609 180.128 0.0376762Q180.262 0.0564916 180.395 0.0846008Q180.528 0.11271 180.658 0.149977Q180.788 0.187244 180.916 0.233489Q181.044 0.279734 181.168 0.334733Q181.292 0.389732 181.412 0.453219Q181.532 0.516706 181.647 0.588375Q181.762 0.660043 181.872 0.739546Q181.982 0.819049 182.086 0.906002Q182.19 0.992955 182.288 1.08694Q182.386 1.18092 182.477 1.28148Q182.568 1.38204 182.652 1.48868Q182.736 1.59533 182.812 1.70755Q182.889 1.81977 182.957 1.93702Q183.025 2.05427 183.085 2.17599Q183.145 2.2977 183.197 2.42329Q183.248 2.54888 183.291 2.67774Q183.333 2.80659 183.367 2.93809Q183.4 3.0696 183.424 3.20311Q183.449 3.33662 183.464 3.47149Q183.478 3.60636 183.484 3.74195Q183.49 3.87753 183.486 4.01317Q183.482 4.14881 183.468 4.28385Q183.455 4.41889 183.432 4.55267Q183.41 4.68646 183.378 4.81834Q183.346 4.95023 183.305 5.07958Q183.264 5.20892 183.214 5.3351Q183.164 5.46129 183.105 5.5837Q183.047 5.7061 182.98 5.82415Q182.913 5.94219 182.838 6.0553Q182.763 6.1684 182.68 6.27602L182.68 6.27602Z" fill="#FE7C20" fill-rule="evenodd" transform="translate(25.5 0)" />
      <path id="Triangle" d="M0.806944 100.6C11.8378 86.2363 78.0635 0 78.0635 0C78.0635 0 42.9035 50.9809 52.1699 77.9953C61.4363 105.01 187.658 106.875 187.658 106.875L3.90041 106.876Q3.76472 106.876 3.62935 106.867Q3.49398 106.857 3.35959 106.839Q3.22521 106.82 3.09245 106.792Q2.9597 106.763 2.82922 106.726Q2.69874 106.689 2.57117 106.643Q2.44359 106.596 2.31954 106.541Q2.19549 106.486 2.07556 106.423Q1.95563 106.359 1.8404 106.288Q1.72518 106.216 1.61521 106.137Q1.50524 106.057 1.40107 105.97Q1.29689 105.883 1.19901 105.789Q1.10113 105.695 1.01001 105.595Q0.918898 105.494 0.834993 105.388Q0.751088 105.281 0.674797 105.169Q0.598507 105.056 0.5302 104.939Q0.461893 104.822 0.401899 104.7Q0.341906 104.578 0.290517 104.453Q0.239127 104.327 0.19659 104.198Q0.154053 104.07 0.120574 103.938Q0.0870946 103.807 0.0628354 103.673Q0.0385762 103.54 0.0236542 103.405Q0.00873227 103.27 0.0032197 103.134Q-0.00229287 102.999 0.00163061 102.863Q0.00555409 102.727 0.0188946 102.592Q0.0322352 102.457 0.0549283 102.324Q0.0776214 102.19 0.109557 102.058Q0.141493 101.926 0.182518 101.797Q0.223542 101.667 0.273456 101.541Q0.323371 101.415 0.381934 101.292Q0.440497 101.17 0.507425 101.052Q0.574354 100.934 0.649324 100.821Q0.724294 100.708 0.806944 100.6L0.806944 100.6Z" fill="#FE7C20" fill-rule="evenodd" transform="translate(0 93.124)" />
    </g>
  </g>
</svg>